<mxfile host="app.diagrams.net" agent="Mozilla/5.0 (Macintosh; Intel Mac OS X 10_15_7) AppleWebKit/537.36 (KHTML, like Gecko) Chrome/140.0.0.0 Safari/537.36" version="28.0.7">
  <diagram name="Page-1" id="8ba9l9_jwwmz3OkizyqZ">
    <mxGraphModel dx="2304" dy="2036" grid="1" gridSize="10" guides="1" tooltips="1" connect="1" arrows="1" fold="1" page="1" pageScale="1" pageWidth="850" pageHeight="1100" math="0" shadow="0">
      <root>
        <mxCell id="0" />
        <mxCell id="1" parent="0" />
        <mxCell id="soWcEMM31tVHpUFdJniQ-62" value="" style="rounded=1;whiteSpace=wrap;html=1;" vertex="1" parent="1">
          <mxGeometry x="570" y="799" width="110" height="60" as="geometry" />
        </mxCell>
        <mxCell id="soWcEMM31tVHpUFdJniQ-61" value="" style="rounded=1;whiteSpace=wrap;html=1;" vertex="1" parent="1">
          <mxGeometry x="150" y="810" width="110" height="60" as="geometry" />
        </mxCell>
        <mxCell id="soWcEMM31tVHpUFdJniQ-60" value="" style="rounded=1;whiteSpace=wrap;html=1;" vertex="1" parent="1">
          <mxGeometry x="360" y="682" width="110" height="60" as="geometry" />
        </mxCell>
        <mxCell id="soWcEMM31tVHpUFdJniQ-6" value="" style="rounded=1;whiteSpace=wrap;html=1;fillColor=none;" vertex="1" parent="1">
          <mxGeometry x="10" y="-280" width="620" height="230" as="geometry" />
        </mxCell>
        <mxCell id="soWcEMM31tVHpUFdJniQ-8" style="edgeStyle=orthogonalEdgeStyle;rounded=0;orthogonalLoop=1;jettySize=auto;html=1;exitX=0.25;exitY=1;exitDx=0;exitDy=0;startArrow=classic;startFill=1;" edge="1" parent="1" source="soWcEMM31tVHpUFdJniQ-1">
          <mxGeometry relative="1" as="geometry">
            <mxPoint x="350" y="210" as="targetPoint" />
          </mxGeometry>
        </mxCell>
        <mxCell id="soWcEMM31tVHpUFdJniQ-18" style="edgeStyle=orthogonalEdgeStyle;rounded=0;orthogonalLoop=1;jettySize=auto;html=1;exitX=0.75;exitY=1;exitDx=0;exitDy=0;entryX=0.75;entryY=0;entryDx=0;entryDy=0;startArrow=none;startFill=0;" edge="1" parent="1" source="soWcEMM31tVHpUFdJniQ-1" target="soWcEMM31tVHpUFdJniQ-2">
          <mxGeometry relative="1" as="geometry" />
        </mxCell>
        <mxCell id="soWcEMM31tVHpUFdJniQ-1" value="Client" style="rounded=1;whiteSpace=wrap;html=1;" vertex="1" parent="1">
          <mxGeometry x="320" y="50" width="120" height="60" as="geometry" />
        </mxCell>
        <mxCell id="soWcEMM31tVHpUFdJniQ-27" style="edgeStyle=orthogonalEdgeStyle;rounded=0;orthogonalLoop=1;jettySize=auto;html=1;entryX=0.5;entryY=0;entryDx=0;entryDy=0;" edge="1" parent="1" source="soWcEMM31tVHpUFdJniQ-2" target="soWcEMM31tVHpUFdJniQ-3">
          <mxGeometry relative="1" as="geometry" />
        </mxCell>
        <mxCell id="soWcEMM31tVHpUFdJniQ-30" style="edgeStyle=orthogonalEdgeStyle;rounded=0;orthogonalLoop=1;jettySize=auto;html=1;" edge="1" parent="1" source="soWcEMM31tVHpUFdJniQ-2" target="soWcEMM31tVHpUFdJniQ-4">
          <mxGeometry relative="1" as="geometry" />
        </mxCell>
        <mxCell id="soWcEMM31tVHpUFdJniQ-2" value="Fast API" style="rounded=1;whiteSpace=wrap;html=1;" vertex="1" parent="1">
          <mxGeometry x="320" y="210" width="120" height="60" as="geometry" />
        </mxCell>
        <mxCell id="soWcEMM31tVHpUFdJniQ-29" style="edgeStyle=orthogonalEdgeStyle;rounded=0;orthogonalLoop=1;jettySize=auto;html=1;entryX=1;entryY=0.5;entryDx=0;entryDy=0;" edge="1" parent="1" source="soWcEMM31tVHpUFdJniQ-3" target="soWcEMM31tVHpUFdJniQ-5">
          <mxGeometry relative="1" as="geometry" />
        </mxCell>
        <mxCell id="soWcEMM31tVHpUFdJniQ-3" value="ETL&amp;nbsp;&lt;div&gt;Pipeline Service&lt;/div&gt;" style="rounded=1;whiteSpace=wrap;html=1;" vertex="1" parent="1">
          <mxGeometry x="530" y="310" width="120" height="60" as="geometry" />
        </mxCell>
        <mxCell id="soWcEMM31tVHpUFdJniQ-20" style="edgeStyle=orthogonalEdgeStyle;rounded=0;orthogonalLoop=1;jettySize=auto;html=1;exitX=0;exitY=0.5;exitDx=0;exitDy=0;entryX=0.5;entryY=1;entryDx=0;entryDy=0;startArrow=classic;startFill=1;" edge="1" parent="1" source="soWcEMM31tVHpUFdJniQ-4" target="soWcEMM31tVHpUFdJniQ-7">
          <mxGeometry relative="1" as="geometry" />
        </mxCell>
        <mxCell id="soWcEMM31tVHpUFdJniQ-31" style="edgeStyle=orthogonalEdgeStyle;rounded=0;orthogonalLoop=1;jettySize=auto;html=1;entryX=0;entryY=0.5;entryDx=0;entryDy=0;startArrow=classic;startFill=1;" edge="1" parent="1" source="soWcEMM31tVHpUFdJniQ-4" target="soWcEMM31tVHpUFdJniQ-5">
          <mxGeometry relative="1" as="geometry" />
        </mxCell>
        <mxCell id="soWcEMM31tVHpUFdJniQ-4" value="Query&amp;nbsp;&lt;div&gt;RAG service&lt;/div&gt;" style="rounded=1;whiteSpace=wrap;html=1;" vertex="1" parent="1">
          <mxGeometry x="110" y="310" width="120" height="60" as="geometry" />
        </mxCell>
        <mxCell id="soWcEMM31tVHpUFdJniQ-5" value="Vector store&lt;br&gt;(ChromaDB)" style="rounded=1;whiteSpace=wrap;html=1;" vertex="1" parent="1">
          <mxGeometry x="320" y="310" width="120" height="60" as="geometry" />
        </mxCell>
        <mxCell id="soWcEMM31tVHpUFdJniQ-7" value="3rd Party LLM&lt;br&gt;OpenAI" style="rounded=1;whiteSpace=wrap;html=1;" vertex="1" parent="1">
          <mxGeometry x="-70" y="240" width="120" height="60" as="geometry" />
        </mxCell>
        <mxCell id="soWcEMM31tVHpUFdJniQ-9" style="edgeStyle=orthogonalEdgeStyle;rounded=0;orthogonalLoop=1;jettySize=auto;html=1;exitX=0.223;exitY=0.991;exitDx=0;exitDy=0;entryX=0.25;entryY=0;entryDx=0;entryDy=0;startArrow=classic;startFill=1;exitPerimeter=0;" edge="1" parent="1">
          <mxGeometry relative="1" as="geometry">
            <mxPoint x="396.75999999999976" y="609.4600000000003" as="sourcePoint" />
            <mxPoint x="397.4999999999998" y="690.0000000000002" as="targetPoint" />
          </mxGeometry>
        </mxCell>
        <mxCell id="soWcEMM31tVHpUFdJniQ-36" style="edgeStyle=orthogonalEdgeStyle;rounded=0;orthogonalLoop=1;jettySize=auto;html=1;entryX=0.5;entryY=0;entryDx=0;entryDy=0;" edge="1" parent="1" source="soWcEMM31tVHpUFdJniQ-10" target="soWcEMM31tVHpUFdJniQ-15">
          <mxGeometry relative="1" as="geometry" />
        </mxCell>
        <mxCell id="soWcEMM31tVHpUFdJniQ-10" value="UI" style="rounded=1;whiteSpace=wrap;html=1;" vertex="1" parent="1">
          <mxGeometry x="370" y="550" width="120" height="60" as="geometry" />
        </mxCell>
        <mxCell id="soWcEMM31tVHpUFdJniQ-37" style="edgeStyle=orthogonalEdgeStyle;rounded=0;orthogonalLoop=1;jettySize=auto;html=1;exitX=0.822;exitY=-0.008;exitDx=0;exitDy=0;entryX=0.75;entryY=1;entryDx=0;entryDy=0;exitPerimeter=0;startArrow=classic;startFill=1;" edge="1" parent="1">
          <mxGeometry relative="1" as="geometry">
            <mxPoint x="460.4200000000001" y="689.52" as="sourcePoint" />
            <mxPoint x="460" y="610" as="targetPoint" />
          </mxGeometry>
        </mxCell>
        <mxCell id="soWcEMM31tVHpUFdJniQ-47" style="edgeStyle=orthogonalEdgeStyle;rounded=0;orthogonalLoop=1;jettySize=auto;html=1;entryX=0.25;entryY=0;entryDx=0;entryDy=0;" edge="1" parent="1" source="soWcEMM31tVHpUFdJniQ-11" target="soWcEMM31tVHpUFdJniQ-12">
          <mxGeometry relative="1" as="geometry" />
        </mxCell>
        <mxCell id="soWcEMM31tVHpUFdJniQ-107" style="edgeStyle=orthogonalEdgeStyle;rounded=0;orthogonalLoop=1;jettySize=auto;html=1;entryX=1;entryY=0.25;entryDx=0;entryDy=0;" edge="1" parent="1" source="soWcEMM31tVHpUFdJniQ-11" target="soWcEMM31tVHpUFdJniQ-65">
          <mxGeometry relative="1" as="geometry">
            <Array as="points">
              <mxPoint x="510" y="720" />
              <mxPoint x="510" y="895" />
              <mxPoint x="540" y="895" />
              <mxPoint x="540" y="1055" />
            </Array>
          </mxGeometry>
        </mxCell>
        <mxCell id="soWcEMM31tVHpUFdJniQ-11" value="API" style="rounded=1;whiteSpace=wrap;html=1;" vertex="1" parent="1">
          <mxGeometry x="370" y="690" width="110" height="60" as="geometry" />
        </mxCell>
        <mxCell id="soWcEMM31tVHpUFdJniQ-46" style="edgeStyle=orthogonalEdgeStyle;rounded=0;orthogonalLoop=1;jettySize=auto;html=1;entryX=1;entryY=0.5;entryDx=0;entryDy=0;" edge="1" parent="1" source="soWcEMM31tVHpUFdJniQ-12" target="soWcEMM31tVHpUFdJniQ-14">
          <mxGeometry relative="1" as="geometry" />
        </mxCell>
        <mxCell id="soWcEMM31tVHpUFdJniQ-57" style="edgeStyle=orthogonalEdgeStyle;rounded=0;orthogonalLoop=1;jettySize=auto;html=1;entryX=1;entryY=0.5;entryDx=0;entryDy=0;" edge="1" parent="1" source="soWcEMM31tVHpUFdJniQ-12" target="soWcEMM31tVHpUFdJniQ-56">
          <mxGeometry relative="1" as="geometry">
            <Array as="points">
              <mxPoint x="540" y="840" />
              <mxPoint x="540" y="970" />
            </Array>
          </mxGeometry>
        </mxCell>
        <mxCell id="soWcEMM31tVHpUFdJniQ-66" style="edgeStyle=orthogonalEdgeStyle;rounded=0;orthogonalLoop=1;jettySize=auto;html=1;entryX=1;entryY=0.5;entryDx=0;entryDy=0;" edge="1" parent="1" source="soWcEMM31tVHpUFdJniQ-12" target="soWcEMM31tVHpUFdJniQ-65">
          <mxGeometry relative="1" as="geometry">
            <Array as="points">
              <mxPoint x="560" y="840" />
              <mxPoint x="560" y="1070" />
            </Array>
          </mxGeometry>
        </mxCell>
        <mxCell id="soWcEMM31tVHpUFdJniQ-12" value="ETL&amp;nbsp;&lt;div&gt;Pipeline Service&lt;/div&gt;" style="rounded=1;whiteSpace=wrap;html=1;" vertex="1" parent="1">
          <mxGeometry x="580" y="810" width="120" height="60" as="geometry" />
        </mxCell>
        <mxCell id="soWcEMM31tVHpUFdJniQ-58" style="edgeStyle=orthogonalEdgeStyle;rounded=0;orthogonalLoop=1;jettySize=auto;html=1;entryX=0;entryY=0.5;entryDx=0;entryDy=0;" edge="1" parent="1" source="soWcEMM31tVHpUFdJniQ-13" target="soWcEMM31tVHpUFdJniQ-56">
          <mxGeometry relative="1" as="geometry" />
        </mxCell>
        <mxCell id="soWcEMM31tVHpUFdJniQ-67" style="edgeStyle=orthogonalEdgeStyle;rounded=0;orthogonalLoop=1;jettySize=auto;html=1;entryX=0;entryY=0.75;entryDx=0;entryDy=0;" edge="1" parent="1" source="soWcEMM31tVHpUFdJniQ-13" target="soWcEMM31tVHpUFdJniQ-65">
          <mxGeometry relative="1" as="geometry">
            <Array as="points">
              <mxPoint x="300" y="850" />
              <mxPoint x="300" y="1085" />
            </Array>
          </mxGeometry>
        </mxCell>
        <mxCell id="soWcEMM31tVHpUFdJniQ-13" value="Query&amp;nbsp;&lt;div&gt;RAG service&lt;/div&gt;" style="rounded=1;whiteSpace=wrap;html=1;" vertex="1" parent="1">
          <mxGeometry x="160" y="820" width="120" height="60" as="geometry" />
        </mxCell>
        <mxCell id="soWcEMM31tVHpUFdJniQ-45" style="edgeStyle=orthogonalEdgeStyle;rounded=0;orthogonalLoop=1;jettySize=auto;html=1;entryX=1;entryY=0.5;entryDx=0;entryDy=0;startArrow=classic;startFill=1;" edge="1" parent="1" source="soWcEMM31tVHpUFdJniQ-14" target="soWcEMM31tVHpUFdJniQ-13">
          <mxGeometry relative="1" as="geometry" />
        </mxCell>
        <mxCell id="soWcEMM31tVHpUFdJniQ-14" value="Vector store&lt;div&gt;(ChromaDB)&lt;/div&gt;" style="rounded=1;whiteSpace=wrap;html=1;" vertex="1" parent="1">
          <mxGeometry x="370" y="820" width="120" height="60" as="geometry" />
        </mxCell>
        <mxCell id="soWcEMM31tVHpUFdJniQ-15" value="Object Store (S3/HDFS)" style="rounded=1;whiteSpace=wrap;html=1;" vertex="1" parent="1">
          <mxGeometry x="590" y="630" width="120" height="60" as="geometry" />
        </mxCell>
        <mxCell id="soWcEMM31tVHpUFdJniQ-44" style="edgeStyle=orthogonalEdgeStyle;rounded=0;orthogonalLoop=1;jettySize=auto;html=1;entryX=0;entryY=0.5;entryDx=0;entryDy=0;startArrow=classic;startFill=1;" edge="1" parent="1" source="soWcEMM31tVHpUFdJniQ-16" target="soWcEMM31tVHpUFdJniQ-13">
          <mxGeometry relative="1" as="geometry" />
        </mxCell>
        <mxCell id="soWcEMM31tVHpUFdJniQ-16" value="3rd Party LLM&lt;br&gt;(OpenAI)" style="rounded=1;whiteSpace=wrap;html=1;" vertex="1" parent="1">
          <mxGeometry x="50" y="660" width="120" height="60" as="geometry" />
        </mxCell>
        <mxCell id="soWcEMM31tVHpUFdJniQ-17" value="Query" style="text;html=1;align=center;verticalAlign=middle;whiteSpace=wrap;rounded=0;" vertex="1" parent="1">
          <mxGeometry x="290" y="140" width="60" height="30" as="geometry" />
        </mxCell>
        <mxCell id="soWcEMM31tVHpUFdJniQ-19" value="Upload" style="text;html=1;align=center;verticalAlign=middle;whiteSpace=wrap;rounded=0;" vertex="1" parent="1">
          <mxGeometry x="417" y="140" width="60" height="30" as="geometry" />
        </mxCell>
        <mxCell id="soWcEMM31tVHpUFdJniQ-32" value="Similarity&lt;div&gt;search&lt;/div&gt;" style="text;html=1;align=center;verticalAlign=middle;whiteSpace=wrap;rounded=0;" vertex="1" parent="1">
          <mxGeometry x="250" y="350" width="60" height="30" as="geometry" />
        </mxCell>
        <mxCell id="soWcEMM31tVHpUFdJniQ-33" value="pass file" style="text;html=1;align=center;verticalAlign=middle;whiteSpace=wrap;rounded=0;" vertex="1" parent="1">
          <mxGeometry x="530" y="211" width="90" height="30" as="geometry" />
        </mxCell>
        <mxCell id="soWcEMM31tVHpUFdJniQ-34" value="pass query" style="text;html=1;align=center;verticalAlign=middle;whiteSpace=wrap;rounded=0;" vertex="1" parent="1">
          <mxGeometry x="160" y="210" width="90" height="30" as="geometry" />
        </mxCell>
        <mxCell id="soWcEMM31tVHpUFdJniQ-35" value="Ingest, Process,&lt;div&gt;Store&lt;/div&gt;" style="text;html=1;align=center;verticalAlign=middle;whiteSpace=wrap;rounded=0;" vertex="1" parent="1">
          <mxGeometry x="530" y="380" width="130" height="30" as="geometry" />
        </mxCell>
        <mxCell id="soWcEMM31tVHpUFdJniQ-38" value="Upload Request. Return&lt;div&gt;Presigned url&lt;/div&gt;" style="text;html=1;align=center;verticalAlign=middle;whiteSpace=wrap;rounded=0;" vertex="1" parent="1">
          <mxGeometry x="475" y="630" width="95" height="50" as="geometry" />
        </mxCell>
        <mxCell id="soWcEMM31tVHpUFdJniQ-39" value="Query" style="text;html=1;align=center;verticalAlign=middle;whiteSpace=wrap;rounded=0;" vertex="1" parent="1">
          <mxGeometry x="330" y="630" width="64" height="30" as="geometry" />
        </mxCell>
        <mxCell id="soWcEMM31tVHpUFdJniQ-41" value="Airflow / Spark server" style="text;html=1;align=center;verticalAlign=middle;whiteSpace=wrap;rounded=0;" vertex="1" parent="1">
          <mxGeometry x="560" y="870" width="180" height="30" as="geometry" />
        </mxCell>
        <mxCell id="soWcEMM31tVHpUFdJniQ-42" value="MCP server" style="text;html=1;align=center;verticalAlign=middle;whiteSpace=wrap;rounded=0;" vertex="1" parent="1">
          <mxGeometry x="160" y="880" width="70" height="30" as="geometry" />
        </mxCell>
        <mxCell id="soWcEMM31tVHpUFdJniQ-43" value="Dedicated DB instances" style="text;html=1;align=center;verticalAlign=middle;whiteSpace=wrap;rounded=0;" vertex="1" parent="1">
          <mxGeometry x="370" y="890" width="90" height="30" as="geometry" />
        </mxCell>
        <mxCell id="soWcEMM31tVHpUFdJniQ-48" style="edgeStyle=orthogonalEdgeStyle;rounded=0;orthogonalLoop=1;jettySize=auto;html=1;entryX=0.662;entryY=-0.015;entryDx=0;entryDy=0;entryPerimeter=0;" edge="1" parent="1" source="soWcEMM31tVHpUFdJniQ-11" target="soWcEMM31tVHpUFdJniQ-13">
          <mxGeometry relative="1" as="geometry" />
        </mxCell>
        <mxCell id="soWcEMM31tVHpUFdJniQ-49" value="trigger file read" style="text;html=1;align=center;verticalAlign=middle;whiteSpace=wrap;rounded=0;" vertex="1" parent="1">
          <mxGeometry x="520" y="720" width="85" height="30" as="geometry" />
        </mxCell>
        <mxCell id="soWcEMM31tVHpUFdJniQ-51" style="edgeStyle=orthogonalEdgeStyle;rounded=0;orthogonalLoop=1;jettySize=auto;html=1;entryX=0.571;entryY=-0.013;entryDx=0;entryDy=0;entryPerimeter=0;startArrow=classic;startFill=1;" edge="1" parent="1" source="soWcEMM31tVHpUFdJniQ-15" target="soWcEMM31tVHpUFdJniQ-12">
          <mxGeometry relative="1" as="geometry" />
        </mxCell>
        <mxCell id="soWcEMM31tVHpUFdJniQ-52" value="FastAPI server" style="text;html=1;align=center;verticalAlign=middle;whiteSpace=wrap;rounded=0;" vertex="1" parent="1">
          <mxGeometry x="370" y="750" width="100" height="30" as="geometry" />
        </mxCell>
        <mxCell id="soWcEMM31tVHpUFdJniQ-53" value="pass query" style="text;html=1;align=center;verticalAlign=middle;whiteSpace=wrap;rounded=0;" vertex="1" parent="1">
          <mxGeometry x="240" y="720" width="90" height="30" as="geometry" />
        </mxCell>
        <mxCell id="soWcEMM31tVHpUFdJniQ-55" value="Upload with presigned url" style="text;html=1;align=center;verticalAlign=middle;whiteSpace=wrap;rounded=0;" vertex="1" parent="1">
          <mxGeometry x="562" y="550" width="90" height="20" as="geometry" />
        </mxCell>
        <mxCell id="soWcEMM31tVHpUFdJniQ-56" value="&lt;div&gt;SQL / NoSQL&lt;/div&gt;&lt;div&gt;(Metadata)&lt;br&gt;(MySQL / MongoDB)&lt;/div&gt;" style="rounded=1;whiteSpace=wrap;html=1;" vertex="1" parent="1">
          <mxGeometry x="365" y="940" width="120" height="60" as="geometry" />
        </mxCell>
        <mxCell id="soWcEMM31tVHpUFdJniQ-59" value="Similarity&lt;div&gt;search&lt;/div&gt;" style="text;html=1;align=center;verticalAlign=middle;whiteSpace=wrap;rounded=0;" vertex="1" parent="1">
          <mxGeometry x="295" y="814" width="60" height="30" as="geometry" />
        </mxCell>
        <mxCell id="soWcEMM31tVHpUFdJniQ-63" value="Ingest, Process/chunking,&lt;div&gt;Store&lt;/div&gt;" style="text;html=1;align=center;verticalAlign=middle;whiteSpace=wrap;rounded=0;" vertex="1" parent="1">
          <mxGeometry x="585" y="900" width="155" height="30" as="geometry" />
        </mxCell>
        <mxCell id="soWcEMM31tVHpUFdJniQ-65" value="Logging/Alerting&lt;div&gt;Loki/Grafana/Prometheus&lt;/div&gt;&lt;div&gt;or Cloudwatch&lt;/div&gt;" style="rounded=1;whiteSpace=wrap;html=1;" vertex="1" parent="1">
          <mxGeometry x="360" y="1040" width="160" height="60" as="geometry" />
        </mxCell>
        <mxCell id="soWcEMM31tVHpUFdJniQ-68" value="Single server Instance" style="text;html=1;align=center;verticalAlign=middle;whiteSpace=wrap;rounded=0;" vertex="1" parent="1">
          <mxGeometry x="30" y="10" width="150" height="30" as="geometry" />
        </mxCell>
        <mxCell id="soWcEMM31tVHpUFdJniQ-86" style="edgeStyle=orthogonalEdgeStyle;rounded=0;orthogonalLoop=1;jettySize=auto;html=1;entryX=0;entryY=0.5;entryDx=0;entryDy=0;" edge="1" parent="1" source="soWcEMM31tVHpUFdJniQ-70" target="soWcEMM31tVHpUFdJniQ-71">
          <mxGeometry relative="1" as="geometry" />
        </mxCell>
        <mxCell id="soWcEMM31tVHpUFdJniQ-87" style="edgeStyle=orthogonalEdgeStyle;rounded=0;orthogonalLoop=1;jettySize=auto;html=1;entryX=0;entryY=0.5;entryDx=0;entryDy=0;" edge="1" parent="1" source="soWcEMM31tVHpUFdJniQ-70" target="soWcEMM31tVHpUFdJniQ-81">
          <mxGeometry relative="1" as="geometry" />
        </mxCell>
        <mxCell id="soWcEMM31tVHpUFdJniQ-70" value="Controller" style="rounded=1;whiteSpace=wrap;html=1;" vertex="1" parent="1">
          <mxGeometry x="-220" y="1310" width="120" height="60" as="geometry" />
        </mxCell>
        <mxCell id="soWcEMM31tVHpUFdJniQ-89" style="edgeStyle=orthogonalEdgeStyle;rounded=0;orthogonalLoop=1;jettySize=auto;html=1;exitX=1;exitY=0.5;exitDx=0;exitDy=0;entryX=0;entryY=0.5;entryDx=0;entryDy=0;" edge="1" parent="1" source="soWcEMM31tVHpUFdJniQ-71" target="soWcEMM31tVHpUFdJniQ-72">
          <mxGeometry relative="1" as="geometry" />
        </mxCell>
        <mxCell id="soWcEMM31tVHpUFdJniQ-101" style="edgeStyle=orthogonalEdgeStyle;rounded=0;orthogonalLoop=1;jettySize=auto;html=1;" edge="1" parent="1" source="soWcEMM31tVHpUFdJniQ-71" target="soWcEMM31tVHpUFdJniQ-79">
          <mxGeometry relative="1" as="geometry" />
        </mxCell>
        <mxCell id="soWcEMM31tVHpUFdJniQ-71" value="Query Service" style="rounded=1;whiteSpace=wrap;html=1;" vertex="1" parent="1">
          <mxGeometry x="45" y="1190" width="120" height="60" as="geometry" />
        </mxCell>
        <mxCell id="soWcEMM31tVHpUFdJniQ-88" style="edgeStyle=orthogonalEdgeStyle;rounded=0;orthogonalLoop=1;jettySize=auto;html=1;entryX=0;entryY=0.5;entryDx=0;entryDy=0;exitX=0.5;exitY=1;exitDx=0;exitDy=0;" edge="1" parent="1" source="soWcEMM31tVHpUFdJniQ-72" target="soWcEMM31tVHpUFdJniQ-75">
          <mxGeometry relative="1" as="geometry" />
        </mxCell>
        <mxCell id="soWcEMM31tVHpUFdJniQ-90" style="edgeStyle=orthogonalEdgeStyle;rounded=0;orthogonalLoop=1;jettySize=auto;html=1;" edge="1" parent="1" source="soWcEMM31tVHpUFdJniQ-72" target="soWcEMM31tVHpUFdJniQ-73">
          <mxGeometry relative="1" as="geometry" />
        </mxCell>
        <mxCell id="soWcEMM31tVHpUFdJniQ-72" value="Query Module&lt;div&gt;class&lt;/div&gt;" style="rounded=1;whiteSpace=wrap;html=1;" vertex="1" parent="1">
          <mxGeometry x="200" y="1190" width="120" height="60" as="geometry" />
        </mxCell>
        <mxCell id="soWcEMM31tVHpUFdJniQ-91" style="edgeStyle=orthogonalEdgeStyle;rounded=0;orthogonalLoop=1;jettySize=auto;html=1;entryX=0;entryY=0.5;entryDx=0;entryDy=0;" edge="1" parent="1" source="soWcEMM31tVHpUFdJniQ-73" target="soWcEMM31tVHpUFdJniQ-74">
          <mxGeometry relative="1" as="geometry" />
        </mxCell>
        <mxCell id="soWcEMM31tVHpUFdJniQ-73" value="LLMChatAgent&lt;div&gt;class&lt;/div&gt;" style="rounded=1;whiteSpace=wrap;html=1;" vertex="1" parent="1">
          <mxGeometry x="360" y="1180" width="120" height="60" as="geometry" />
        </mxCell>
        <mxCell id="soWcEMM31tVHpUFdJniQ-99" style="edgeStyle=orthogonalEdgeStyle;rounded=0;orthogonalLoop=1;jettySize=auto;html=1;" edge="1" parent="1" source="soWcEMM31tVHpUFdJniQ-74" target="soWcEMM31tVHpUFdJniQ-77">
          <mxGeometry relative="1" as="geometry" />
        </mxCell>
        <mxCell id="soWcEMM31tVHpUFdJniQ-74" value="&lt;div&gt;LLM conf&lt;/div&gt;&lt;div&gt;class&lt;/div&gt;" style="rounded=1;whiteSpace=wrap;html=1;" vertex="1" parent="1">
          <mxGeometry x="535" y="1180" width="120" height="60" as="geometry" />
        </mxCell>
        <mxCell id="soWcEMM31tVHpUFdJniQ-92" style="edgeStyle=orthogonalEdgeStyle;rounded=0;orthogonalLoop=1;jettySize=auto;html=1;entryX=0;entryY=0.5;entryDx=0;entryDy=0;" edge="1" parent="1" source="soWcEMM31tVHpUFdJniQ-75" target="soWcEMM31tVHpUFdJniQ-76">
          <mxGeometry relative="1" as="geometry" />
        </mxCell>
        <mxCell id="soWcEMM31tVHpUFdJniQ-75" value="VectorDB&lt;div&gt;class&lt;/div&gt;" style="rounded=1;whiteSpace=wrap;html=1;" vertex="1" parent="1">
          <mxGeometry x="370" y="1300" width="120" height="60" as="geometry" />
        </mxCell>
        <mxCell id="soWcEMM31tVHpUFdJniQ-93" style="edgeStyle=orthogonalEdgeStyle;rounded=0;orthogonalLoop=1;jettySize=auto;html=1;entryX=0;entryY=0.5;entryDx=0;entryDy=0;" edge="1" parent="1" source="soWcEMM31tVHpUFdJniQ-76" target="soWcEMM31tVHpUFdJniQ-77">
          <mxGeometry relative="1" as="geometry" />
        </mxCell>
        <mxCell id="soWcEMM31tVHpUFdJniQ-76" value="Vector Conf" style="rounded=1;whiteSpace=wrap;html=1;" vertex="1" parent="1">
          <mxGeometry x="550" y="1270" width="120" height="60" as="geometry" />
        </mxCell>
        <mxCell id="soWcEMM31tVHpUFdJniQ-77" value="Config" style="rounded=1;whiteSpace=wrap;html=1;" vertex="1" parent="1">
          <mxGeometry x="720" y="1270" width="120" height="60" as="geometry" />
        </mxCell>
        <mxCell id="soWcEMM31tVHpUFdJniQ-104" style="edgeStyle=orthogonalEdgeStyle;rounded=0;orthogonalLoop=1;jettySize=auto;html=1;" edge="1" parent="1" source="soWcEMM31tVHpUFdJniQ-79" target="soWcEMM31tVHpUFdJniQ-80">
          <mxGeometry relative="1" as="geometry" />
        </mxCell>
        <mxCell id="soWcEMM31tVHpUFdJniQ-79" value="&lt;div&gt;Logger class&lt;/div&gt;" style="rounded=1;whiteSpace=wrap;html=1;" vertex="1" parent="1">
          <mxGeometry x="45" y="1380" width="120" height="60" as="geometry" />
        </mxCell>
        <mxCell id="soWcEMM31tVHpUFdJniQ-106" style="edgeStyle=orthogonalEdgeStyle;rounded=0;orthogonalLoop=1;jettySize=auto;html=1;" edge="1" parent="1" source="soWcEMM31tVHpUFdJniQ-80">
          <mxGeometry relative="1" as="geometry">
            <mxPoint x="780" y="1330" as="targetPoint" />
          </mxGeometry>
        </mxCell>
        <mxCell id="soWcEMM31tVHpUFdJniQ-80" value="Logger Conf" style="rounded=1;whiteSpace=wrap;html=1;" vertex="1" parent="1">
          <mxGeometry x="260" y="1380" width="120" height="60" as="geometry" />
        </mxCell>
        <mxCell id="soWcEMM31tVHpUFdJniQ-102" style="edgeStyle=orthogonalEdgeStyle;rounded=0;orthogonalLoop=1;jettySize=auto;html=1;exitX=0.5;exitY=0;exitDx=0;exitDy=0;" edge="1" parent="1" source="soWcEMM31tVHpUFdJniQ-81" target="soWcEMM31tVHpUFdJniQ-79">
          <mxGeometry relative="1" as="geometry">
            <Array as="points">
              <mxPoint x="105" y="1530" />
            </Array>
          </mxGeometry>
        </mxCell>
        <mxCell id="soWcEMM31tVHpUFdJniQ-81" value="Upload Service" style="rounded=1;whiteSpace=wrap;html=1;" vertex="1" parent="1">
          <mxGeometry x="50" y="1530" width="120" height="60" as="geometry" />
        </mxCell>
        <mxCell id="soWcEMM31tVHpUFdJniQ-95" style="edgeStyle=orthogonalEdgeStyle;rounded=0;orthogonalLoop=1;jettySize=auto;html=1;entryX=0;entryY=0.5;entryDx=0;entryDy=0;" edge="1" parent="1" source="soWcEMM31tVHpUFdJniQ-82" target="soWcEMM31tVHpUFdJniQ-85">
          <mxGeometry relative="1" as="geometry">
            <Array as="points">
              <mxPoint x="380" y="1600" />
              <mxPoint x="380" y="1540" />
            </Array>
          </mxGeometry>
        </mxCell>
        <mxCell id="soWcEMM31tVHpUFdJniQ-96" style="edgeStyle=orthogonalEdgeStyle;rounded=0;orthogonalLoop=1;jettySize=auto;html=1;entryX=0;entryY=0.5;entryDx=0;entryDy=0;" edge="1" parent="1" source="soWcEMM31tVHpUFdJniQ-82" target="soWcEMM31tVHpUFdJniQ-84">
          <mxGeometry relative="1" as="geometry">
            <Array as="points">
              <mxPoint x="380" y="1600" />
              <mxPoint x="380" y="1620" />
            </Array>
          </mxGeometry>
        </mxCell>
        <mxCell id="soWcEMM31tVHpUFdJniQ-97" style="edgeStyle=orthogonalEdgeStyle;rounded=0;orthogonalLoop=1;jettySize=auto;html=1;entryX=0;entryY=0.5;entryDx=0;entryDy=0;" edge="1" parent="1" source="soWcEMM31tVHpUFdJniQ-82" target="soWcEMM31tVHpUFdJniQ-83">
          <mxGeometry relative="1" as="geometry">
            <Array as="points">
              <mxPoint x="380" y="1600" />
              <mxPoint x="380" y="1700" />
            </Array>
          </mxGeometry>
        </mxCell>
        <mxCell id="soWcEMM31tVHpUFdJniQ-82" value="Pipeline Module&lt;div&gt;class&lt;/div&gt;" style="rounded=1;whiteSpace=wrap;html=1;" vertex="1" parent="1">
          <mxGeometry x="230" y="1570" width="120" height="60" as="geometry" />
        </mxCell>
        <mxCell id="soWcEMM31tVHpUFdJniQ-83" value="Ingest Module&lt;div&gt;class&lt;/div&gt;" style="rounded=1;whiteSpace=wrap;html=1;" vertex="1" parent="1">
          <mxGeometry x="410" y="1670" width="120" height="60" as="geometry" />
        </mxCell>
        <mxCell id="soWcEMM31tVHpUFdJniQ-98" style="edgeStyle=orthogonalEdgeStyle;rounded=0;orthogonalLoop=1;jettySize=auto;html=1;entryX=0.5;entryY=1;entryDx=0;entryDy=0;" edge="1" parent="1" source="soWcEMM31tVHpUFdJniQ-84" target="soWcEMM31tVHpUFdJniQ-77">
          <mxGeometry relative="1" as="geometry" />
        </mxCell>
        <mxCell id="soWcEMM31tVHpUFdJniQ-84" value="Process Module&lt;div&gt;class&lt;/div&gt;" style="rounded=1;whiteSpace=wrap;html=1;" vertex="1" parent="1">
          <mxGeometry x="407" y="1590" width="120" height="60" as="geometry" />
        </mxCell>
        <mxCell id="soWcEMM31tVHpUFdJniQ-85" value="Store Module&lt;div&gt;class&lt;/div&gt;" style="rounded=1;whiteSpace=wrap;html=1;" vertex="1" parent="1">
          <mxGeometry x="407" y="1510" width="120" height="60" as="geometry" />
        </mxCell>
        <mxCell id="soWcEMM31tVHpUFdJniQ-100" style="edgeStyle=orthogonalEdgeStyle;rounded=0;orthogonalLoop=1;jettySize=auto;html=1;entryX=0.015;entryY=0.629;entryDx=0;entryDy=0;entryPerimeter=0;" edge="1" parent="1" source="soWcEMM31tVHpUFdJniQ-81" target="soWcEMM31tVHpUFdJniQ-82">
          <mxGeometry relative="1" as="geometry" />
        </mxCell>
        <mxCell id="soWcEMM31tVHpUFdJniQ-105" style="edgeStyle=orthogonalEdgeStyle;rounded=0;orthogonalLoop=1;jettySize=auto;html=1;entryX=0.803;entryY=1.02;entryDx=0;entryDy=0;entryPerimeter=0;" edge="1" parent="1" source="soWcEMM31tVHpUFdJniQ-85" target="soWcEMM31tVHpUFdJniQ-75">
          <mxGeometry relative="1" as="geometry" />
        </mxCell>
      </root>
    </mxGraphModel>
  </diagram>
</mxfile>
